{"title":"The.Borgias.S02E09.HDTV.XviD-Atilla82","uid":7345867,"size":418608484,"categoryP":"video","categoryS":"tv_shows","magnet":"?xt=urn:btih:b6219c69a799d03ba9aa618d3e14b9b8135e8831&amp;dn=The.Borgias.S02E09.HDTV.XviD-Atilla82&amp;tr=udp%3A%2F%2Ftracker.openbittorrent.com%3A80&amp;tr=udp%3A%2F%2Fopen.demonii.com%3A1337&amp;tr=udp%3A%2F%2Ftracker.coppersurfer.tk%3A6969&amp;tr=udp%3A%2F%2Fexodus.desync.com%3A6969","seeders":1,"leechers":0,"uploader":"Atilla82","files":2,"time":1339423520,"description":"The Borgias S02E09 HDTV XviD Atilla82\n\n\nThe Borgias (2011)\n\nThe saga of a crime family in 1492 Italy.\n &lt;a href=&quot;\nhttp://www.imdb.com/title/tt1582457/&quot; rel=&quot;nofollow&quot; target=&quot;_NEW&quot;&gt;\nhttp://www.imdb.com/title/tt1582457/&lt;/a&gt;\n\n\nlanguage: English\n\n\n\n\nGeneral\nComplete name : The.Borgias.S02E09.HDTV.XviD-Atilla82.avi\nFormat : AVI\nFormat/Info : Audio Video Interleave\nFile size : 399 MiB\nDuration : 49mn 34s\nOverall bit rate : 1 126 Kbps\nWriting application : Lavf52.61.0\n\nVideo\nID : 0\nFormat : MPEG-4 Visual\nFormat profile : Advanced Simple@L5\nFormat settings, BVOP : No\nFormat settings, QPel : Yes\nFormat settings, GMC : No warppoints\nFormat settings, Matrix : Default (H.263)\nCodec ID : XVID\nCodec ID/Hint : XviD\nDuration : 49mn 34s\nBit rate : 985 Kbps\nWidth : 680 pixels\nHeight : 380 pixels\nDisplay aspect ratio : 16:9\nFrame rate : 23.976 fps\nColor space : YUV\nChroma subsampling : 4:2:0\nBit depth : 8 bits\nScan type : Progressive\nCompression mode : Lossy\nBits/(Pixel*Frame) : 0.159\nStream size : 349 MiB (88%)\nWriting library : XviD 64\n\nAudio\nID : 1\nFormat : MPEG Audio\nFormat version : Version 1\nFormat profile : Layer 3\nMode : Joint stereo\nMode extension : MS Stereo\nCodec ID : 55\nCodec ID/Hint : MP3\nDuration : 49mn 34s\nBit rate mode : Constant\nBit rate : 128 Kbps\nChannel(s) : 2 channels\nSampling rate : 48.0 KHz\nCompression mode : Lossy\nStream size : 45.4 MiB (11%)\nAlignment : Aligned on interleaves\nInterleave, duration : 24 ms (0.58 video frame)\nWriting library : LAME3.99UUUU\n\n\nSCREENSHOTS &lt;a href=&quot;\nhttp://www.pohrani.com/f/14/2W/33Sov4He/theborgiass02e09hdtvxvid.jpg&quot; rel=&quot;nofollow&quot; target=&quot;_NEW&quot;&gt;\nhttp://www.pohrani.com/f/14/2W/33Sov4He/theborgiass02e09hdtvxvid.jpg&lt;/a&gt;\n","torrent":{"xt":"urn:btih:b6219c69a799d03ba9aa618d3e14b9b8135e8831","amp;dn":"The.Borgias.S02E09.HDTV.XviD-Atilla82","amp;tr":["udp%3A%2F%2Ftracker.openbittorrent.com%3A80","udp%3A%2F%2Fopen.demonii.com%3A1337","udp%3A%2F%2Ftracker.coppersurfer.tk%3A6969","udp%3A%2F%2Fexodus.desync.com%3A6969"],"infoHash":"b6219c69a799d03ba9aa618d3e14b9b8135e8831","infoHashBuffer":{"type":"Buffer","data":[182,33,156,105,167,153,208,59,169,170,97,141,62,20,185,184,19,94,136,49]},"announce":[],"urlList":[]}}